HIERARCHY
ROOT hip
{
  OFFSET 0 0 0
  CHANNELS 6 Xposition Yposition Zposition Zrotation Yrotation Xrotation
  JOINT abdomen
  {
    OFFSET 0 20.6881 -0.73152
    CHANNELS 3 Zrotation Xrotation Yrotation
    JOINT chest
    {
      OFFSET 0 11.7043 -0.48768
      CHANNELS 3 Zrotation Xrotation Yrotation
      JOINT neck
      {
        OFFSET 0 22.1894 -2.19456
        CHANNELS 3 Zrotation Xrotation Yrotation
        JOINT head
        {
          OFFSET -0.24384 7.07133 1.2192
          CHANNELS 3 Zrotation Xrotation Yrotation
          JOINT leftEye
          {
            OFFSET 4.14528 8.04674 8.04672
            CHANNELS 3 Zrotation Xrotation Yrotation
            End Site
            {
              OFFSET 1 0 0
            }
          }
          JOINT rightEye
          {
            OFFSET -3.6576 8.04674 8.04672
            CHANNELS 3 Zrotation Xrotation Yrotation
            End Site
            {
              OFFSET 1 0 0
            }
          }
        }
      }
      JOINT rCollar
      {
        OFFSET -2.68224 19.2634 -4.8768
        CHANNELS 3 Zrotation Xrotation Yrotation
        JOINT rShldr
        {
          OFFSET -8.77824 -1.95073 1.46304
          CHANNELS 3 Zrotation Xrotation Yrotation
          JOINT rForeArm
          {
            OFFSET -28.1742 -1.7115 0.48768
            CHANNELS 3 Zrotation Xrotation Yrotation
            JOINT rHand
            {
              OFFSET -22.5879 0.773209 7.07136
              CHANNELS 3 Zrotation Xrotation Yrotation
              JOINT rThumb1
              {
                OFFSET -1.2192 -0.487915 3.41376
                CHANNELS 3 Zrotation Xrotation Yrotation
                JOINT rThumb2
                {
                  OFFSET -3.37035 -0.52449 3.41376
                  CHANNELS 3 Zrotation Xrotation Yrotation
                  End Site
                  {
                    OFFSET -1.78271 -1.18214 1.43049
                  }
                }
              }
              JOINT rIndex1
              {
                OFFSET -7.75947 0.938293 5.60832
                CHANNELS 3 Zrotation Xrotation Yrotation
                JOINT rIndex2
                {
                  OFFSET -2.54057 -0.884171 1.56538
                  CHANNELS 3 Zrotation Xrotation Yrotation
                  End Site
                  {
                    OFFSET -1.62519 -0.234802 1.16502
                  }
                }
              }
              JOINT rMid1
              {
                OFFSET -8.24714 1.18213 3.41376
                CHANNELS 3 Zrotation Xrotation Yrotation
                JOINT rMid2
                {
                  OFFSET -3.10165 -0.590103 1.0647
                  CHANNELS 3 Zrotation Xrotation Yrotation
                  End Site
                  {
                    OFFSET -2.48547 -0.328903 0.83742
                  }
                }
              }
              JOINT rRing1
              {
                OFFSET -8.82822 0.546677 1.51678
                CHANNELS 3 Zrotation Xrotation Yrotation
                JOINT rRing2
                {
                  OFFSET -2.60934 -0.819778 -0.0198488
                  CHANNELS 3 Zrotation Xrotation Yrotation
                  End Site
                  {
                    OFFSET -2.33842 -0.294052 0.168128
                  }
                }
              }
              JOINT rPinky1
              {
                OFFSET -8.27202 -0.0477905 -0.4584
                CHANNELS 3 Zrotation Xrotation Yrotation
                JOINT rPinky2
                {
                  OFFSET -1.82734 -0.647385 -0.700984
                  CHANNELS 3 Zrotation Xrotation Yrotation
                  End Site
                  {
                    OFFSET -1.69225 -0.51767 -0.607171
                  }
                }
              }
            }
          }
        }
      }
      JOINT lCollar
      {
        OFFSET 2.68224 19.2634 -4.8768
        CHANNELS 3 Zrotation Xrotation Yrotation
        JOINT lShldr
        {
          OFFSET 8.77824 -1.95073 1.46304
          CHANNELS 3 Zrotation Xrotation Yrotation
          JOINT lForeArm
          {
            OFFSET 28.1742 -1.7115 0.48768
            CHANNELS 3 Zrotation Xrotation Yrotation
            JOINT lHand
            {
              OFFSET 22.5879 0.773209 7.07136
              CHANNELS 3 Zrotation Xrotation Yrotation
              JOINT lThumb1
              {
                OFFSET 1.2192 -0.487915 3.41376
                CHANNELS 3 Zrotation Xrotation Yrotation
                JOINT lThumb2
                {
                  OFFSET 3.37035 -0.52449 3.41376
                  CHANNELS 3 Zrotation Xrotation Yrotation
                  End Site
                  {
                    OFFSET 1.78271 -1.18214 1.43049
                  }
                }
              }
              JOINT lIndex1
              {
                OFFSET 7.75947 0.938293 5.60832
                CHANNELS 3 Zrotation Xrotation Yrotation
                JOINT lIndex2
                {
                  OFFSET 2.54057 -0.884171 1.56538
                  CHANNELS 3 Zrotation Xrotation Yrotation
                  End Site
                  {
                    OFFSET 1.62519 -0.234802 1.16502
                  }
                }
              }
              JOINT lMid1
              {
                OFFSET 8.24714 1.18213 3.41376
                CHANNELS 3 Zrotation Xrotation Yrotation
                JOINT lMid2
                {
                  OFFSET 3.10165 -0.590103 1.0647
                  CHANNELS 3 Zrotation Xrotation Yrotation
                  End Site
                  {
                    OFFSET 2.48547 -0.328903 0.83742
                  }
                }
              }
              JOINT lRing1
              {
                OFFSET 8.82822 0.546677 1.51678
                CHANNELS 3 Zrotation Xrotation Yrotation
                JOINT lRing2
                {
                  OFFSET 2.60934 -0.819778 -0.0198488
                  CHANNELS 3 Zrotation Xrotation Yrotation
                  End Site
                  {
                    OFFSET 2.33842 -0.294052 0.168128
                  }
                }
              }
              JOINT lPinky1
              {
                OFFSET 8.27202 -0.0477905 -0.4584
                CHANNELS 3 Zrotation Xrotation Yrotation
                JOINT lPinky2
                {
                  OFFSET 1.82734 -0.647385 -0.700984
                  CHANNELS 3 Zrotation Xrotation Yrotation
                  End Site
                  {
                    OFFSET 1.69225 -0.51767 -0.607171
                  }
                }
              }
            }
          }
        }
      }
    }
  }
  JOINT rButtock
  {
    OFFSET -8.77824 4.35084 1.2192
    CHANNELS 3 Zrotation Xrotation Yrotation
    JOINT rThigh
    {
      OFFSET 0 -1.70687 -2.19456
      CHANNELS 3 Zrotation Xrotation Yrotation
      JOINT rShin
      {
        OFFSET 0 -36.8199 0.73152
        CHANNELS 3 Zrotation Xrotation Yrotation
        JOINT rFoot
        {
          OFFSET 0.73152 -45.1104 -5.12064
          CHANNELS 3 Zrotation Xrotation Yrotation
          End Site
          {
            OFFSET -1.1221 -3.69964 12.103
          }
        }
      }
    }
  }
  JOINT lButtock
  {
    OFFSET 8.77824 4.35084 1.2192
    CHANNELS 3 Zrotation Xrotation Yrotation
    JOINT lThigh
    {
      OFFSET 0 -1.70687 -2.19456
      CHANNELS 3 Zrotation Xrotation Yrotation
      JOINT lShin
      {
        OFFSET 0 -36.8199 0.73152
        CHANNELS 3 Zrotation Xrotation Yrotation
        JOINT lFoot
        {
          OFFSET -0.73152 -45.1104 -5.12064
          CHANNELS 3 Zrotation Xrotation Yrotation
          End Site
          {
            OFFSET 1.1221 -3.69964 12.103
          }
        }
      }
    }
  }
}
MOTION
Frames:	8
Frame Time:	0.00833333
31.6772 85.2982 0.977522 0.0 0.0 0.0 0.984345 -0.00436098 0.0272511 0.271542 -0.00455363 0.047044 6.40226e-15 -7.95139e-16 6.21202e-17 1.93225e-14 3.18055e-15 1.61513e-16 -0.0 0.0 0.0 -0.0 0.0 0.0 3.22905e-15 2.71776e-18 9.93923e-17 7.07523e-14 4.28629e-16 1.78906e-15 1.15772e-12 -3.46084e-13 -2.22639e-14 1.32471e-11 3.48072e-13 1.65389e-13 3.12494e-11 -2.36596e-15 3.08514e-13 5.39577e-11 -9.54166e-15 5.27177e-13 3.12581e-11 3.97569e-16 3.02153e-13 7.73091 5.47488 0.417314 3.12509e-11 -2.08724e-15 3.08514e-13 2.90554 0.965183 0.102902 3.12635e-11 -1.98785e-15 3.05333e-13 10.2786 0.731801 0.0259123 3.12474e-11 -7.95139e-16 3.11694e-13 2.22167 -0.733487 -0.20892 3.23166e-15 4.07664e-18 -9.93923e-17 6.4461e-14 3.97569e-16 -1.98785e-16 1.15539e-12 3.4668e-13 2.8625e-14 1.32468e-11 -3.47699e-13 1.11319e-13 3.12472e-11 -7.32238e-15 2.95792e-13 5.39692e-11 -1.59028e-14 5.1366e-13 3.1239e-11 -3.97569e-15 2.98972e-13 -7.73091 5.47488 -0.417314 3.12463e-11 -7.05686e-15 2.92611e-13 -2.90554 0.965183 -0.102902 3.12417e-11 -6.75868e-15 2.99767e-13 -10.2786 0.731801 -0.0259123 3.12454e-11 -6.75868e-15 3.02153e-13 -2.22167 -0.733487 0.20892 -2.03217e-16 0.0 -3.88251e-19 1.24896 -5.45295 -0.10917 6.82499e-05 4.3223 0.0238713 -0.510821 1.12953 0.081253 2.03217e-16 0.0 3.88251e-19 0.249808 -1.91924 0.0129209 0.00928265 -2.07855 0.0766754 0.496108 3.99654 -0.137923
25.465 84.5708 -6.14368 135.239 -84.6279 -132.718 -0.508091 -1.64261 -0.424127 1.20633 1.79103 -0.0985278 -3.83946 0.0399442 -2.66939 3.40175 3.07678 -4.88789 -0.0 0.0 0.0 -0.0 0.0 0.0 7.93425e-14 -4.96012e-13 -8.58152e-14 21.6184 4.57718 1.06758 -3.63611 -1.55096 5.78433 0.00764524 -1.94869 -0.273307 -6.71114e-10 1.04646e-09 -1.78048e-09 -1.15296e-09 1.81413e-09 -3.08073e-09 -6.71106e-10 1.04646e-09 -1.78049e-09 7.73091 5.47488 0.417314 -6.71113e-10 1.04646e-09 -1.78048e-09 2.90554 0.965183 0.102902 -6.71103e-10 1.04646e-09 -1.78049e-09 10.2786 0.731801 0.0259123 -6.71117e-10 1.04646e-09 -1.78048e-09 2.22167 -0.733487 -0.20892 7.93217e-14 -4.96012e-13 -8.59946e-14 -22.8308 6.07215 -1.74306 3.05578 -1.21698 -4.94287 -0.00054552 -0.534169 0.0750622 -7.20691e-10 -5.69901e-10 1.04076e-09 -1.2434e-09 -9.86563e-10 1.79787e-09 -7.20699e-10 -5.69899e-10 1.04077e-09 -7.73091 5.47488 -0.417314 -7.20692e-10 -5.69901e-10 1.04076e-09 -2.90554 0.965183 -0.102902 -7.20699e-10 -5.699e-10 1.04077e-09 -10.2786 0.731801 -0.0259123 -7.20691e-10 -5.69898e-10 1.04077e-09 -2.22167 -0.733487 0.20892 -2.03217e-16 0.0 -3.88251e-19 -1.75124 -4.91468 -0.131361 2.16768e-05 6.03108 0.0593308 -0.67648 -1.80923 -5.68639 2.03217e-16 0.0 3.88251e-19 0.818011 -2.47162 -1.95095 -0.0139205 2.29008 -0.0798347 1.11908 -1.23099 6.57979
25.4981 84.612 -6.0655 132.938 -84.5356 -130.426 -2.1363 -3.39119 -0.911862 2.20047 3.71208 -0.255788 -7.89519 0.0835152 -5.49091 7.57137 6.2538 -10.1009 -0.0 0.0 0.0 -0.0 0.0 0.0 1.61139e-13 -1.01353e-12 -1.80105e-13 44.2793 9.43416 2.22073 -7.14229 -3.13843 11.9142 -0.00462755 -4.03015 -0.566319 -1.43274e-09 2.19997e-09 -3.73424e-09 -2.46164e-09 3.81385e-09 -6.46125e-09 -1.43274e-09 2.19997e-09 -3.73424e-09 7.73091 5.47488 0.417314 -1.43274e-09 2.19997e-09 -3.73423e-09 2.90554 0.965183 0.102902 -1.43274e-09 2.19997e-09 -3.73424e-09 10.2786 0.731801 0.0259123 -1.43275e-09 2.19997e-09 -3.73423e-09 2.22167 -0.733487 -0.20892 1.61095e-13 -1.01353e-12 -1.8026e-13 -46.5568 12.4612 -3.65059 6.05686 -2.4722 -10.1722 0.000414092 -1.08386 0.152328 -1.53149e-09 -1.19557e-09 2.18395e-09 -2.64227e-09 -2.06964e-09 3.77268e-09 -1.5315e-09 -1.19557e-09 2.18396e-09 -7.73091 5.47488 -0.417314 -1.53149e-09 -1.19557e-09 2.18395e-09 -2.90554 0.965183 -0.102902 -1.5315e-09 -1.19557e-09 2.18396e-09 -10.2786 0.731801 -0.0259123 -1.53149e-09 -1.19556e-09 2.18395e-09 -2.22167 -0.733487 0.20892 -2.03217e-16 0.0 -3.88251e-19 -4.95486 -4.35415 -0.165305 -0.00248172 7.88694 0.098191 -1.50212 -4.85403 -11.8172 2.03217e-16 0.0 3.88251e-19 1.34661 -3.03068 -4.02754 -0.012431 6.9021 -0.24659 3.10146 -6.58242 13.7586
25.5504 84.6529 -6.02778 133.474 -84.2787 -130.885 -3.57063 -4.91791 -1.33126 3.10338 5.38209 -0.391252 -11.5073 0.118793 -8.00819 11.7774 8.96056 -14.8275 -0.0 0.0 0.0 -0.0 0.0 0.0 2.31569e-13 -1.48804e-12 -2.57644e-13 64.3312 13.7122 3.2863 -9.98244 -4.46353 17.4011 -0.0330832 -5.84554 -0.82373 -2.07584e-09 3.13937e-09 -5.34207e-09 -3.56679e-09 5.44241e-09 -9.24326e-09 -2.07583e-09 3.13937e-09 -5.34207e-09 7.73091 5.47488 0.417314 -2.07584e-09 3.13937e-09 -5.34206e-09 2.90554 0.965183 0.102902 -2.07584e-09 3.13937e-09 -5.34207e-09 10.2786 0.731801 0.0259123 -2.07585e-09 3.13937e-09 -5.34206e-09 2.22167 -0.733487 -0.20892 2.31502e-13 -1.48804e-12 -2.57785e-13 -67.3364 18.1472 -5.47283 8.5442 -3.54242 -14.8543 0.00256365 -1.60249 0.225265 -2.22457e-09 -1.70969e-09 3.1217e-09 -3.83813e-09 -2.95966e-09 5.39258e-09 -2.22457e-09 -1.70969e-09 3.12171e-09 -7.73091 5.47488 -0.417314 -2.22457e-09 -1.70969e-09 3.1217e-09 -2.90554 0.965183 -0.102902 -2.22458e-09 -1.70969e-09 3.1217e-09 -10.2786 0.731801 -0.0259123 -2.22456e-09 -1.70968e-09 3.1217e-09 -2.22167 -0.733487 0.20892 -2.03217e-16 0.0 -3.88251e-19 -7.7504 -3.83814 -0.175677 -0.00650337 9.44863 0.13118 -2.76595 -7.36613 -17.3609 2.03217e-16 0.0 3.88251e-19 1.8409 -3.56187 -5.88462 0.0121652 11.0271 -0.399947 6.01543 -10.9945 20.4006
25.699 84.6904 -6.04598 138.558 -83.6725 -135.712 -4.46159 -5.89124 -1.57523 3.75743 6.42465 -0.470518 -14.0188 0.134424 -9.76483 14.9674 10.7483 -18.182 -0.0 0.0 0.0 -0.0 0.0 0.0 2.73581e-13 -1.85506e-12 -2.93307e-13 78.2411 16.5616 4.05113 -11.8059 -5.31339 21.2347 -0.0604122 -6.99629 -0.98823 -2.42261e-09 3.54351e-09 -6.08508e-09 -4.16313e-09 6.14306e-09 -1.0529e-08 -2.4226e-09 3.5435e-09 -6.08508e-09 7.73091 5.47488 0.417314 -2.42261e-09 3.5435e-09 -6.08506e-09 2.90554 0.965183 0.102902 -2.4226e-09 3.54351e-09 -6.08507e-09 10.2786 0.731801 0.0259123 -2.42261e-09 3.54351e-09 -6.08507e-09 2.22167 -0.733487 -0.20892 2.73492e-13 -1.85506e-12 -2.93456e-13 -81.577 22.1407 -6.8531 10.1824 -4.25296 -18.1439 0.00512431 -2.04351 0.287319 -2.62335e-09 -1.94494e-09 3.54585e-09 -4.52646e-09 -3.367e-09 6.12522e-09 -2.62335e-09 -1.94494e-09 3.54585e-09 -7.73091 5.47488 -0.417314 -2.62335e-09 -1.94494e-09 3.54585e-09 -2.90554 0.965183 -0.102902 -2.62336e-09 -1.94494e-09 3.54585e-09 -10.2786 0.731801 -0.0259123 -2.62334e-09 -1.94494e-09 3.54584e-09 -2.22167 -0.733487 0.20892 -2.03217e-16 0.0 -3.88251e-19 -9.52758 -3.43342 -0.127232 -0.00918006 10.2749 0.148619 -3.86887 -8.86686 -21.2893 2.03217e-16 0.0 3.88251e-19 2.32255 -4.03487 -7.18885 0.0434571 13.9348 -0.512216 8.69577 -13.7536 25.2668
25.6334 84.6412 -6.06564 137.516 -83.7296 -134.937 -4.49463 -6.0476 -1.54142 4.06541 6.52293 -0.461098 -14.9963 0.123058 -10.4596 16.2489 11.4315 -19.5198 -0.0 0.0 0.0 -0.0 0.0 0.0 2.80173e-13 -2.1743e-12 -2.66348e-13 83.7397 17.3863 4.32839 -12.479 -5.62151 22.7234 -0.0674992 -7.18617 -1.01563 -2.35106e-09 3.15891e-09 -5.45482e-09 -4.04155e-09 5.47643e-09 -9.43892e-09 -2.35105e-09 3.15891e-09 -5.45482e-09 7.73091 5.47488 0.417314 -2.35106e-09 3.15891e-09 -5.45481e-09 2.90554 0.965183 0.102902 -2.35105e-09 3.15891e-09 -5.45482e-09 10.2786 0.731801 0.0259123 -2.35106e-09 3.15891e-09 -5.45481e-09 2.22167 -0.733487 -0.20892 2.80057e-13 -2.17431e-12 -2.66551e-13 -87.0691 23.831 -7.44285 10.8221 -4.53324 -19.4752 0.00731194 -2.39992 0.337489 -2.61209e-09 -1.75808e-09 3.0965e-09 -4.50774e-09 -3.04377e-09 5.34877e-09 -2.61209e-09 -1.75808e-09 3.09651e-09 -7.73091 5.47488 -0.417314 -2.61209e-09 -1.75808e-09 3.0965e-09 -2.90554 0.965183 -0.102902 -2.6121e-09 -1.75807e-09 3.0965e-09 -10.2786 0.731801 -0.0259123 -2.61208e-09 -1.75807e-09 3.0965e-09 -2.22167 -0.733487 0.20892 -2.03217e-16 0.0 -3.88251e-19 -9.77663 -3.19084 0.0341593 -0.00761896 9.98978 0.142075 -4.18484 -9.14091 -22.8567 2.03217e-16 0.0 3.88251e-19 2.91484 -4.49255 -7.71891 0.0607251 15.1622 -0.561526 9.94228 -14.7142 27.3723
26.6908 84.8867 -6.80908 157.706 -84.1612 -154.312 -3.91685 -5.62247 -1.3103 4.12536 5.94985 -0.388683 -14.8784 0.0925553 -10.3958 16.0559 11.378 -19.3891 -0.0 0.0 0.0 -0.0 0.0 0.0 2.61256e-13 -2.45454e-12 -1.94849e-13 83.269 16.7703 4.24255 -12.3911 -5.57811 22.53 -0.0577608 -6.69122 -0.944905 -1.98088e-09 2.21281e-09 -3.85139e-09 -3.40742e-09 3.83641e-09 -6.66527e-09 -1.98087e-09 2.21281e-09 -3.8514e-09 7.73091 5.47488 0.417314 -1.98088e-09 2.21281e-09 -3.85138e-09 2.90554 0.965183 0.102902 -1.98087e-09 2.21281e-09 -3.85139e-09 10.2786 0.731801 0.0259123 -1.98088e-09 2.21281e-09 -3.85138e-09 2.22167 -0.733487 -0.20892 2.61111e-13 -2.45455e-12 -1.95138e-13 -86.4196 23.8906 -7.41281 10.7912 -4.52699 -19.4032 0.00908255 -2.69476 0.379006 -2.30786e-09 -1.27121e-09 2.03058e-09 -3.98382e-09 -2.20132e-09 3.50711e-09 -2.30785e-09 -1.2712e-09 2.03059e-09 -7.73091 5.47488 -0.417314 -2.30785e-09 -1.2712e-09 2.03058e-09 -2.90554 0.965183 -0.102902 -2.30786e-09 -1.2712e-09 2.03059e-09 -10.2786 0.731801 -0.0259123 -2.30785e-09 -1.2712e-09 2.03058e-09 -2.22167 -0.733487 0.20892 -2.03217e-16 0.0 -3.88251e-19 -8.93961 -3.06373 0.274746 -0.0035008 8.91478 0.118584 -3.83181 -8.60227 -22.7176 2.03217e-16 0.0 3.88251e-19 3.59295 -4.93887 -7.69525 0.0619719 15.1883 -0.563803 9.90804 -14.5503 27.4229
26.5408 84.9179 -6.62018 152.031 -83.8311 -148.754 -3.21497 -5.03344 -1.04744 4.07003 5.21373 -0.305502 -14.3168 0.054665 -10.0236 15.2753 11.0261 -18.6624 -0.0 0.0 0.0 -0.0 0.0 0.0 2.25153e-13 -2.5548e-12 -1.11925e-13 80.3897 15.6386 4.02671 -11.9997 -5.39485 21.6673 -0.0444607 -5.97151 -0.842342 -1.49676e-09 1.10507e-09 -2.11873e-09 -2.57721e-09 1.91617e-09 -3.66773e-09 -1.49675e-09 1.10507e-09 -2.11874e-09 7.73091 5.47488 0.417314 -1.49676e-09 1.10507e-09 -2.11872e-09 2.90554 0.965183 0.102902 -1.49675e-09 1.10507e-09 -2.11873e-09 10.2786 0.731801 0.0259123 -1.49676e-09 1.10507e-09 -2.11872e-09 2.22167 -0.733487 -0.20892 2.24988e-13 -2.55481e-12 -1.12292e-13 -83.3198 23.2706 -7.13202 10.4875 -4.40313 -18.7589 0.0105181 -2.92646 0.411646 -1.88325e-09 -7.15066e-10 9.65159e-10 -3.25221e-09 -1.23891e-09 1.66642e-09 -1.88325e-09 -7.15065e-10 9.65166e-10 -7.73091 5.47488 -0.417314 -1.88325e-09 -7.15063e-10 9.65161e-10 -2.90554 0.965183 -0.102902 -1.88326e-09 -7.15062e-10 9.65165e-10 -10.2786 0.731801 -0.0259123 -1.88325e-09 -7.15059e-10 9.65166e-10 -2.22167 -0.733487 0.20892 -2.03217e-16 0.0 -3.88251e-19 -7.83386 -2.97262 0.49796 7.05402e-05 7.65455 0.0913771 -3.2674 -7.79408 -21.908 2.03217e-16 0.0 3.88251e-19 4.15824 -5.28665 -7.44647 0.0559394 14.6961 -0.545874 9.33993 -13.953 26.6029
